<?xml version="1.0" encoding="utf-8"?>
<!-- Generator: Adobe Illustrator 23.0.1, SVG Export Plug-In . SVG Version: 6.00 Build 0)  -->
<svg version="1.1" id="Layer_1" xmlns="http://www.w3.org/2000/svg" xmlns:xlink="http://www.w3.org/1999/xlink" x="0px" y="0px"
	 viewBox="0 0 503.9 257.7" style="enable-background:new 0 0 503.9 257.7;" xml:space="preserve">
<style type="text/css">
	.st0{fill:#60C8B4;}
	.st1{fill:#88D6D6;}
	.st2{fill:#308D82;}
	.st3{fill:#C9661D;}
	.st4{fill:#F0DD96;}
	.st5{fill:#EDD64C;}
	.st6{fill:#E9AC18;}
	.st7{fill:#CD7C1C;}
	.st8{fill:#F0A924;}
	.st9{fill:#CF801A;}
	.st10{fill:#CE7D1A;}
	.st11{fill:#7F1431;}
	.st12{fill:#ED232E;}
	.st13{fill:#541126;}
</style>
<desc>Created with Fabric.js 2.4.1</desc>
<g id="Head">
	<path class="st0" d="M372.7,9.4l49,56.6l-104,30.1L372.7,9.4z"/>
	<path class="st1" d="M382.4,143l19.4-37l-84-9.9L382.4,143z"/>
	<path class="st2" d="M445.3,82.9L401.8,106l-84-9.9l104-30.1L445.3,82.9"/>
	<path class="st0" d="M401.8,106l52.5,23.5l-8.9-46.6L401.8,106z"/>
	<path class="st2" d="M432.7,166.3L401.8,106l52.5,23.5L432.7,166.3z"/>
	<path class="st0" d="M382.4,143l50.3,23.3L401.8,106L382.4,143z"/>
	<path class="st2" d="M396.6,179.3l36.1-13L382.4,143L396.6,179.3z"/>
	<path class="st2" d="M424.9,198.2l7.8-31.9l-20.5,30.4L424.9,198.2z"/>
	<path class="st1" d="M454.3,129.5l18.7-4.3l-23-17.9L454.3,129.5z"/>
	<path class="st2" d="M475.5,136.1l-2.6-10.9l-18.7,4.3L475.5,136.1z"/>
	<path class="st0" d="M472.9,125.2l32.8,10.4l-30.2,0.6L472.9,125.2z"/>
	<path class="st1" d="M412.1,196.6l20.5-30.4l-36.1,13L412.1,196.6z"/>
</g>
<g id="Body">
	<path id="logo-logo" class="st3" d="M370,248.7l5.7-6.7l79,6.7H370z"/>
	<path class="st4" d="M266.1,2l45.4,94.4l55-86.8L266.1,2z"/>
	<path class="st5" d="M266.1,2l-46.7,101l92.2-6.7L266.1,2z"/>
	<path class="st6" d="M222,194.1l89.5-97.7l-92.2,6.7L222,194.1z"/>
	<path class="st7" d="M299.3,181.3l12.2-84.9l-89.5,97.7L299.3,181.3z"/>
	<path class="st8" d="M336.6,165.7L376,144l-64.5-47.6L336.6,165.7z"/>
	<path class="st9" d="M168.8,50.5l50.6,52.5L266.1,2L168.8,50.5z"/>
	<path class="st4" d="M299.3,181.3l37.3-15.6l-25.1-69.4L299.3,181.3z"/>
	<path class="st10" d="M325.7,209.7l10.4-44l-36.2,15.4L325.7,209.7z"/>
	<path class="st4" d="M325.7,209.5l27.3,8.6l-19.2-43.1L325.7,209.5z"/>
	<path class="st8" d="M305.8,232.1l8.1,9.1L285.6,252l11.9-19.9H305.8"/>
	<path class="st8" d="M353,218.3l-47.4,13.8l20.1-22.4L353,218.3z"/>
	<path class="st3" d="M313.6,241.1l-8.1-9.1l47.4-13.8L313.6,241.1z"/>
	<path class="st10" d="M336.6,165.8l28.8,30.8l-1.7-45.9L336.6,165.8z"/>
	<path class="st8" d="M373.8,238.9l-8.2-42.4l-28.8-30.8l17.8,38.5L373.8,238.9"/>
	<path class="st4" d="M373.6,238.2l16.5-12l-24.8-30.3L373.6,238.2z"/>
	<path class="st3" d="M370,248.7l3.7-10.4l16.5-12l4.2,21.9L370,248.7"/>
	<path class="st8" d="M294.8,248.4l11.1-16.3H171.6l120.7,6.8l-17.4,16.6h124.4L294.8,248.4"/>
</g>
<g id="Tail">
	<path class="st11" d="M42.6,238.5L139,231l20.2-11.2l102.7,7h-95.6L142,238.5L42.6,238.5"/>
	<path class="st12" d="M164,50.7l50.6,52.5l-81.2,54.4L164,50.7z"/>
	<path class="st11" d="M217.3,194.1l-2.7-91.1l-81.2,54.4L217.3,194.1z"/>
	<path class="st12" d="M64.8,116.7l24.4-55.6L164,50.7L64.8,116.7z"/>
	<path class="st11" d="M64.8,116.7l68.6,40.9L164,50.7L64.8,116.7z"/>
	<path class="st13" d="M97.4,162.4l5.3-23.2l30.8,18.4L97.4,162.4z"/>
	<path class="st12" d="M64.9,116.7l32.5,45.7l5.3-23.2L64.9,116.7z"/>
	<path class="st11" d="M62.3,177.5l35.1-15.1l-32.5-45.7l4,39.3L62.3,177.5"/>
	<path class="st12" d="M62.3,177.5l16.1,6.9l18.9-22L62.3,177.5z"/>
	<path class="st12" d="M74.6,207.5l9.2-1.5L98,222.5H71.9L74.6,207.5"/>
	<path class="st13" d="M62.3,177.5L83.8,206l-5.4-21.5L62.3,177.5z"/>
	<path class="st11" d="M62.3,177.5l12.3,30l9.2-1.5L62.3,177.5z"/>
	<path class="st12" d="M97.4,162.4l27.6,22.4l8.5-27.2L97.4,162.4z"/>
	<path class="st11" d="M108.4,179.8l16.5,5l-16.5,4.2V179.8z"/>
	<path class="st13" d="M97.4,162.4l11.1,17.4l16.5,5L97.4,162.4z"/>
	<path class="st12" d="M108.4,188.9l30,30L125,184.6L108.4,188.9z"/>
	<path class="st13" d="M138.1,218.9l14.1-6l-27.6-28.2L138.1,218.9z"/>
	<path class="st11" d="M138.2,235.8v-16.9l14.1-6l13.9,13.7L138.2,235.8"/>
	<path class="st11" d="M71.3,71.3L80,82.1l9.2-21L71.3,71.3z"/>
	<path class="st13" d="M50.3,106.5l21-35.2L80,82.1L50.3,106.5z"/>
	<path class="st12" d="M47.7,99.7l2.6,6.8l21-35.2L47.7,99.7z"/>
	<path class="st13" d="M26.6,103.4l-2.7,3.9l26.4-0.7l-2.6-6.8L26.6,103.4"/>
	<path class="st12" d="M0.3,75.6l26.3,27.9V91.3L0.3,75.6z"/>
	<path class="st13" d="M10.8,103.4h15.8L0.3,75.6L10.8,103.4z"/>
	<path class="st11" d="M23.9,107.3l-13-3.9h15.8L23.9,107.3z"/>
	<path class="st12" d="M98,222.5H0.6l91.6-6.9L98,222.5z"/>
</g>
</svg>
